<svg width="182" height="60" viewBox="0 0 182 60" fill="none" xmlns="http://www.w3.org/2000/svg">
<rect y="4.15417" width="5.53886" height="55.3886" rx="2.76943" fill="#9440FF"/>
<rect x="22.1554" y="4.15417" width="5.53886" height="55.3886" rx="2.76943" fill="#9440FF"/>
<rect x="44.3109" y="4.15417" width="5.53886" height="55.3886" rx="2.76943" fill="#9440FF"/>
<rect x="11.0778" width="5.53886" height="55.3886" rx="2.76943" fill="#1E2772"/>
<rect x="33.2332" width="5.53886" height="55.3886" rx="2.76943" fill="#1E2772"/>
<path d="M77.648 39.04H67.92L66.128 44H63.056L71.12 21.824H74.48L82.512 44H79.44L77.648 39.04ZM76.816 36.672L72.784 25.408L68.752 36.672H76.816ZM84.9385 35.168C84.9385 33.376 85.3012 31.808 86.0265 30.464C86.7518 29.0987 87.7438 28.0427 89.0025 27.296C90.2825 26.5493 91.7118 26.176 93.2905 26.176C94.6558 26.176 95.9252 26.496 97.0985 27.136C98.2718 27.7547 99.1678 28.576 99.7865 29.6V20.32H102.731V44H99.7865V40.704C99.2105 41.7493 98.3572 42.6133 97.2265 43.296C96.0958 43.9573 94.7732 44.288 93.2585 44.288C91.7012 44.288 90.2825 43.904 89.0025 43.136C87.7438 42.368 86.7518 41.2907 86.0265 39.904C85.3012 38.5173 84.9385 36.9387 84.9385 35.168ZM99.7865 35.2C99.7865 33.8773 99.5198 32.7253 98.9865 31.744C98.4532 30.7627 97.7278 30.016 96.8105 29.504C95.9145 28.9707 94.9225 28.704 93.8345 28.704C92.7465 28.704 91.7545 28.96 90.8585 29.472C89.9625 29.984 89.2478 30.7307 88.7145 31.712C88.1812 32.6933 87.9145 33.8453 87.9145 35.168C87.9145 36.512 88.1812 37.6853 88.7145 38.688C89.2478 39.6693 89.9625 40.4267 90.8585 40.96C91.7545 41.472 92.7465 41.728 93.8345 41.728C94.9225 41.728 95.9145 41.472 96.8105 40.96C97.7278 40.4267 98.4532 39.6693 98.9865 38.688C99.5198 37.6853 99.7865 36.5227 99.7865 35.2ZM106.564 35.168C106.564 33.376 106.926 31.808 107.652 30.464C108.377 29.0987 109.369 28.0427 110.628 27.296C111.908 26.5493 113.337 26.176 114.916 26.176C116.281 26.176 117.55 26.496 118.724 27.136C119.897 27.7547 120.793 28.576 121.412 29.6V20.32H124.356V44H121.412V40.704C120.836 41.7493 119.982 42.6133 118.852 43.296C117.721 43.9573 116.398 44.288 114.884 44.288C113.326 44.288 111.908 43.904 110.628 43.136C109.369 42.368 108.377 41.2907 107.652 39.904C106.926 38.5173 106.564 36.9387 106.564 35.168ZM121.412 35.2C121.412 33.8773 121.145 32.7253 120.612 31.744C120.078 30.7627 119.353 30.016 118.436 29.504C117.54 28.9707 116.548 28.704 115.46 28.704C114.372 28.704 113.38 28.96 112.484 29.472C111.588 29.984 110.873 30.7307 110.34 31.712C109.806 32.6933 109.54 33.8453 109.54 35.168C109.54 36.512 109.806 37.6853 110.34 38.688C110.873 39.6693 111.588 40.4267 112.484 40.96C113.38 41.472 114.372 41.728 115.46 41.728C116.548 41.728 117.54 41.472 118.436 40.96C119.353 40.4267 120.078 39.6693 120.612 38.688C121.145 37.6853 121.412 36.5227 121.412 35.2ZM132.189 29.312C132.701 28.3093 133.426 27.5307 134.365 26.976C135.325 26.4213 136.487 26.144 137.853 26.144V29.152H137.085C133.821 29.152 132.189 30.9227 132.189 34.464V44H129.277V26.464H132.189V29.312ZM157.214 34.56C157.214 35.1147 157.182 35.7013 157.118 36.32H143.102C143.209 38.048 143.795 39.4027 144.862 40.384C145.95 41.344 147.262 41.824 148.798 41.824C150.057 41.824 151.102 41.536 151.934 40.96C152.787 40.3627 153.385 39.5733 153.726 38.592H156.862C156.393 40.2773 155.454 41.6533 154.046 42.72C152.638 43.7653 150.889 44.288 148.798 44.288C147.134 44.288 145.641 43.9147 144.318 43.168C143.017 42.4213 141.993 41.3653 141.246 40C140.499 38.6133 140.126 37.0133 140.126 35.2C140.126 33.3867 140.489 31.7973 141.214 30.432C141.939 29.0667 142.953 28.0213 144.254 27.296C145.577 26.5493 147.091 26.176 148.798 26.176C150.462 26.176 151.934 26.5387 153.214 27.264C154.494 27.9893 155.475 28.992 156.158 30.272C156.862 31.5307 157.214 32.96 157.214 34.56ZM154.206 33.952C154.206 32.8427 153.961 31.8933 153.47 31.104C152.979 30.2933 152.307 29.6853 151.454 29.28C150.622 28.8533 149.694 28.64 148.67 28.64C147.198 28.64 145.939 29.1093 144.894 30.048C143.87 30.9867 143.283 32.288 143.134 33.952H154.206ZM170.21 44L166.05 37.472L162.05 44H159.01L164.674 35.296L159.01 26.464H162.306L166.466 32.96L170.434 26.464H173.474L167.842 35.136L173.506 44H170.21Z" fill="#9440FF"/>
</svg>
